<mxfile host="app.diagrams.net" agent="Mozilla/5.0 (Windows NT 10.0; Win64; x64) AppleWebKit/537.36 (KHTML, like Gecko) Chrome/127.0.0.0 Safari/537.36" version="24.7.6">
  <diagram name="Page-1" id="6Xx1lABy-8DIot1MOwMg">
    <mxGraphModel dx="880" dy="468" grid="1" gridSize="10" guides="1" tooltips="1" connect="1" arrows="1" fold="1" page="1" pageScale="1" pageWidth="850" pageHeight="1100" math="0" shadow="0">
      <root>
        <mxCell id="0" />
        <mxCell id="1" parent="0" />
        <mxCell id="qjTfQk-2MDzsnX-JJMLC-1" value="End User" style="shape=umlActor;verticalLabelPosition=bottom;verticalAlign=top;html=1;outlineConnect=0;" vertex="1" parent="1">
          <mxGeometry x="80" y="140" width="30" height="60" as="geometry" />
        </mxCell>
        <mxCell id="qjTfQk-2MDzsnX-JJMLC-2" value="Purchase/ Sell motor" style="swimlane;whiteSpace=wrap;html=1;" vertex="1" parent="1">
          <mxGeometry x="190" y="70" width="200" height="420" as="geometry" />
        </mxCell>
        <mxCell id="qjTfQk-2MDzsnX-JJMLC-8" value="view motor vehicles" style="ellipse;whiteSpace=wrap;html=1;" vertex="1" parent="qjTfQk-2MDzsnX-JJMLC-2">
          <mxGeometry x="30" y="40" width="140" height="60" as="geometry" />
        </mxCell>
        <mxCell id="qjTfQk-2MDzsnX-JJMLC-9" value="purchase motor vehicle" style="ellipse;whiteSpace=wrap;html=1;" vertex="1" parent="qjTfQk-2MDzsnX-JJMLC-2">
          <mxGeometry x="30" y="110" width="140" height="70" as="geometry" />
        </mxCell>
        <mxCell id="qjTfQk-2MDzsnX-JJMLC-10" value="manage user data" style="ellipse;whiteSpace=wrap;html=1;" vertex="1" parent="qjTfQk-2MDzsnX-JJMLC-2">
          <mxGeometry x="30" y="250" width="140" height="70" as="geometry" />
        </mxCell>
        <mxCell id="qjTfQk-2MDzsnX-JJMLC-11" value="manage motor vehicles" style="ellipse;whiteSpace=wrap;html=1;" vertex="1" parent="qjTfQk-2MDzsnX-JJMLC-2">
          <mxGeometry x="30" y="330" width="140" height="70" as="geometry" />
        </mxCell>
        <mxCell id="qjTfQk-2MDzsnX-JJMLC-13" value="" style="endArrow=none;html=1;rounded=0;exitX=0.5;exitY=0.5;exitDx=0;exitDy=0;exitPerimeter=0;" edge="1" parent="qjTfQk-2MDzsnX-JJMLC-2" source="qjTfQk-2MDzsnX-JJMLC-1">
          <mxGeometry width="50" height="50" relative="1" as="geometry">
            <mxPoint x="-20" y="120" as="sourcePoint" />
            <mxPoint x="30" y="70" as="targetPoint" />
          </mxGeometry>
        </mxCell>
        <mxCell id="qjTfQk-2MDzsnX-JJMLC-6" value="Admin" style="shape=umlActor;verticalLabelPosition=bottom;verticalAlign=top;html=1;outlineConnect=0;" vertex="1" parent="1">
          <mxGeometry x="80" y="370" width="30" height="60" as="geometry" />
        </mxCell>
        <mxCell id="qjTfQk-2MDzsnX-JJMLC-14" value="" style="endArrow=none;html=1;rounded=0;exitX=0.5;exitY=0.5;exitDx=0;exitDy=0;exitPerimeter=0;" edge="1" parent="1" source="qjTfQk-2MDzsnX-JJMLC-1">
          <mxGeometry width="50" height="50" relative="1" as="geometry">
            <mxPoint x="105" y="180" as="sourcePoint" />
            <mxPoint x="220" y="209" as="targetPoint" />
          </mxGeometry>
        </mxCell>
        <mxCell id="qjTfQk-2MDzsnX-JJMLC-15" value="" style="endArrow=none;html=1;rounded=0;entryX=0.007;entryY=0.614;entryDx=0;entryDy=0;entryPerimeter=0;exitX=0.5;exitY=0.5;exitDx=0;exitDy=0;exitPerimeter=0;" edge="1" parent="1" source="qjTfQk-2MDzsnX-JJMLC-6" target="qjTfQk-2MDzsnX-JJMLC-10">
          <mxGeometry width="50" height="50" relative="1" as="geometry">
            <mxPoint x="90" y="400" as="sourcePoint" />
            <mxPoint x="215" y="370" as="targetPoint" />
          </mxGeometry>
        </mxCell>
        <mxCell id="qjTfQk-2MDzsnX-JJMLC-16" value="" style="endArrow=none;html=1;rounded=0;entryX=0;entryY=0.5;entryDx=0;entryDy=0;exitX=0.5;exitY=0.5;exitDx=0;exitDy=0;exitPerimeter=0;" edge="1" parent="1" source="qjTfQk-2MDzsnX-JJMLC-6" target="qjTfQk-2MDzsnX-JJMLC-11">
          <mxGeometry width="50" height="50" relative="1" as="geometry">
            <mxPoint x="105" y="410" as="sourcePoint" />
            <mxPoint x="231" y="373" as="targetPoint" />
          </mxGeometry>
        </mxCell>
      </root>
    </mxGraphModel>
  </diagram>
</mxfile>
